<mxfile host="app.diagrams.net" modified="2020-09-20T05:18:54.333Z" agent="5.0 (X11; Linux x86_64) AppleWebKit/537.36 (KHTML, like Gecko) Chrome/84.0.4147.89 Safari/537.36" etag="K1P6wlPzx-Oe8V5biHpy" version="13.7.3" type="github">
  <diagram id="4T8pWzmSjZRxrowc12v0" name="Page-1">
    <mxGraphModel dx="2591" dy="774" grid="1" gridSize="10" guides="0" tooltips="1" connect="1" arrows="1" fold="1" page="1" pageScale="1" pageWidth="1169" pageHeight="1654" math="0" shadow="0">
      <root>
        <mxCell id="0" />
        <mxCell id="1" parent="0" />
        <mxCell id="xrA6xBDfba17gvvvKiil-1" value="SHOP" style="shape=table;html=1;whiteSpace=wrap;startSize=40;container=1;collapsible=0;childLayout=tableLayout;fontStyle=1;align=center;fixedRows=0;fillColor=#dae8fc;strokeColor=#6c8ebf;fontSize=16;" parent="1" vertex="1">
          <mxGeometry x="30" y="30" width="680" height="77" as="geometry" />
        </mxCell>
        <mxCell id="xrA6xBDfba17gvvvKiil-2" value="" style="shape=partialRectangle;html=1;whiteSpace=wrap;collapsible=0;dropTarget=0;pointerEvents=0;fillColor=none;top=0;left=0;bottom=0;right=0;points=[[0,0.5],[1,0.5]];portConstraint=eastwest;fontSize=14;" parent="xrA6xBDfba17gvvvKiil-1" vertex="1">
          <mxGeometry y="40" width="680" height="37" as="geometry" />
        </mxCell>
        <mxCell id="xrA6xBDfba17gvvvKiil-3" value="State_code" style="shape=partialRectangle;html=1;whiteSpace=wrap;connectable=0;fillColor=none;top=0;left=0;bottom=0;right=0;overflow=hidden;fontSize=12;" parent="xrA6xBDfba17gvvvKiil-2" vertex="1">
          <mxGeometry width="100" height="37" as="geometry" />
        </mxCell>
        <mxCell id="xrA6xBDfba17gvvvKiil-4" value="Pan_card_no" style="shape=partialRectangle;html=1;whiteSpace=wrap;connectable=0;fillColor=none;top=0;left=0;bottom=0;right=0;overflow=hidden;" parent="xrA6xBDfba17gvvvKiil-2" vertex="1">
          <mxGeometry x="100" width="130" height="37" as="geometry" />
        </mxCell>
        <mxCell id="xrA6xBDfba17gvvvKiil-5" value="Random_no" style="shape=partialRectangle;html=1;whiteSpace=wrap;connectable=0;fillColor=none;top=0;left=0;bottom=0;right=0;overflow=hidden;" parent="xrA6xBDfba17gvvvKiil-2" vertex="1">
          <mxGeometry x="230" width="150" height="37" as="geometry" />
        </mxCell>
        <mxCell id="xrA6xBDfba17gvvvKiil-15" value="Name" style="shape=partialRectangle;html=1;whiteSpace=wrap;connectable=0;fillColor=none;top=0;left=0;bottom=0;right=0;overflow=hidden;" parent="xrA6xBDfba17gvvvKiil-2" vertex="1">
          <mxGeometry x="380" width="150" height="37" as="geometry" />
        </mxCell>
        <mxCell id="xrA6xBDfba17gvvvKiil-18" value="Location" style="shape=partialRectangle;html=1;whiteSpace=wrap;connectable=0;fillColor=#f8cecc;top=0;left=0;bottom=0;right=0;overflow=hidden;strokeColor=#b85450;" parent="xrA6xBDfba17gvvvKiil-2" vertex="1">
          <mxGeometry x="530" width="150" height="37" as="geometry" />
        </mxCell>
        <mxCell id="xrA6xBDfba17gvvvKiil-21" value="TRACKS_INFO" style="shape=table;html=1;whiteSpace=wrap;startSize=30;container=1;collapsible=0;childLayout=tableLayout;fontStyle=1;align=center;strokeColor=#6c8ebf;fillColor=#dae8fc;fontSize=16;" parent="1" vertex="1">
          <mxGeometry x="30" y="180" width="667" height="70" as="geometry" />
        </mxCell>
        <mxCell id="xrA6xBDfba17gvvvKiil-22" value="" style="shape=partialRectangle;html=1;whiteSpace=wrap;collapsible=0;dropTarget=0;pointerEvents=0;fillColor=none;top=0;left=0;bottom=0;right=0;points=[[0,0.5],[1,0.5]];portConstraint=eastwest;" parent="xrA6xBDfba17gvvvKiil-21" vertex="1">
          <mxGeometry y="30" width="667" height="40" as="geometry" />
        </mxCell>
        <mxCell id="xrA6xBDfba17gvvvKiil-23" value="CAAD" style="shape=partialRectangle;html=1;whiteSpace=wrap;connectable=0;fillColor=#f8cecc;top=0;left=0;bottom=0;right=0;overflow=hidden;strokeColor=#b85450;" parent="xrA6xBDfba17gvvvKiil-22" vertex="1">
          <mxGeometry width="167" height="40" as="geometry" />
        </mxCell>
        <mxCell id="xrA6xBDfba17gvvvKiil-24" value="Name" style="shape=partialRectangle;html=1;whiteSpace=wrap;connectable=0;top=0;left=0;bottom=0;right=0;overflow=hidden;fillColor=#f8cecc;strokeColor=#b85450;" parent="xrA6xBDfba17gvvvKiil-22" vertex="1">
          <mxGeometry x="167" width="166" height="40" as="geometry" />
        </mxCell>
        <mxCell id="xrA6xBDfba17gvvvKiil-25" value="S_location" style="shape=partialRectangle;html=1;whiteSpace=wrap;connectable=0;fillColor=#f8cecc;top=0;left=0;bottom=0;right=0;overflow=hidden;strokeColor=#b85450;" parent="xrA6xBDfba17gvvvKiil-22" vertex="1">
          <mxGeometry x="333" width="167" height="40" as="geometry" />
        </mxCell>
        <mxCell id="xrA6xBDfba17gvvvKiil-34" value="F_email" style="shape=partialRectangle;html=1;whiteSpace=wrap;connectable=0;fillColor=#f8cecc;top=0;left=0;bottom=0;right=0;overflow=hidden;strokeColor=#b85450;" parent="xrA6xBDfba17gvvvKiil-22" vertex="1">
          <mxGeometry x="500" width="167" height="40" as="geometry" />
        </mxCell>
        <mxCell id="xrA6xBDfba17gvvvKiil-35" value="PERSON" style="shape=table;html=1;whiteSpace=wrap;startSize=30;container=1;collapsible=0;childLayout=tableLayout;fontStyle=1;align=center;strokeColor=#6c8ebf;fillColor=#dae8fc;fontSize=16;" parent="1" vertex="1">
          <mxGeometry x="40" y="340" width="670" height="70" as="geometry" />
        </mxCell>
        <mxCell id="xrA6xBDfba17gvvvKiil-36" value="" style="shape=partialRectangle;html=1;whiteSpace=wrap;collapsible=0;dropTarget=0;pointerEvents=0;fillColor=none;top=0;left=0;bottom=0;right=0;points=[[0,0.5],[1,0.5]];portConstraint=eastwest;" parent="xrA6xBDfba17gvvvKiil-35" vertex="1">
          <mxGeometry y="30" width="670" height="40" as="geometry" />
        </mxCell>
        <mxCell id="xrA6xBDfba17gvvvKiil-37" value="Aadhar_no" style="shape=partialRectangle;html=1;whiteSpace=wrap;connectable=0;fillColor=#f8cecc;top=0;left=0;bottom=0;right=0;overflow=hidden;strokeColor=#b85450;" parent="xrA6xBDfba17gvvvKiil-36" vertex="1">
          <mxGeometry width="223" height="40" as="geometry" />
        </mxCell>
        <mxCell id="xrA6xBDfba17gvvvKiil-38" value="Name" style="shape=partialRectangle;html=1;whiteSpace=wrap;connectable=0;fillColor=none;top=0;left=0;bottom=0;right=0;overflow=hidden;" parent="xrA6xBDfba17gvvvKiil-36" vertex="1">
          <mxGeometry x="223" width="224" height="40" as="geometry" />
        </mxCell>
        <mxCell id="xrA6xBDfba17gvvvKiil-39" value="Address" style="shape=partialRectangle;html=1;whiteSpace=wrap;connectable=0;fillColor=none;top=0;left=0;bottom=0;right=0;overflow=hidden;" parent="xrA6xBDfba17gvvvKiil-36" vertex="1">
          <mxGeometry x="447" width="223" height="40" as="geometry" />
        </mxCell>
        <mxCell id="xrA6xBDfba17gvvvKiil-88" value="INSURANCE_COMPANY" style="shape=table;html=1;whiteSpace=wrap;startSize=30;container=1;collapsible=0;childLayout=tableLayout;fontStyle=1;align=center;strokeColor=#6c8ebf;fillColor=#dae8fc;fontSize=16;" parent="1" vertex="1">
          <mxGeometry x="50" y="840" width="450" height="70" as="geometry" />
        </mxCell>
        <mxCell id="xrA6xBDfba17gvvvKiil-89" value="" style="shape=partialRectangle;html=1;whiteSpace=wrap;collapsible=0;dropTarget=0;pointerEvents=0;fillColor=none;top=0;left=0;bottom=0;right=0;points=[[0,0.5],[1,0.5]];portConstraint=eastwest;" parent="xrA6xBDfba17gvvvKiil-88" vertex="1">
          <mxGeometry y="30" width="450" height="40" as="geometry" />
        </mxCell>
        <mxCell id="xrA6xBDfba17gvvvKiil-90" value="Costumer_count" style="shape=partialRectangle;html=1;whiteSpace=wrap;connectable=0;fillColor=none;top=0;left=0;bottom=0;right=0;overflow=hidden;" parent="xrA6xBDfba17gvvvKiil-89" vertex="1">
          <mxGeometry width="230" height="40" as="geometry" />
        </mxCell>
        <mxCell id="xrA6xBDfba17gvvvKiil-91" value="Name" style="shape=partialRectangle;html=1;whiteSpace=wrap;connectable=0;fillColor=#f8cecc;top=0;left=0;bottom=0;right=0;overflow=hidden;strokeColor=#b85450;" parent="xrA6xBDfba17gvvvKiil-89" vertex="1">
          <mxGeometry x="230" width="220" height="40" as="geometry" />
        </mxCell>
        <mxCell id="xrA6xBDfba17gvvvKiil-174" value="" style="edgeStyle=segmentEdgeStyle;endArrow=classic;html=1;fontSize=16;exitX=0.619;exitY=1.05;exitDx=0;exitDy=0;exitPerimeter=0;entryX=0.844;entryY=1.054;entryDx=0;entryDy=0;entryPerimeter=0;" parent="1" source="xrA6xBDfba17gvvvKiil-22" target="xrA6xBDfba17gvvvKiil-2" edge="1">
          <mxGeometry width="50" height="50" relative="1" as="geometry">
            <mxPoint x="450" y="290" as="sourcePoint" />
            <mxPoint x="640" y="130" as="targetPoint" />
            <Array as="points">
              <mxPoint x="443" y="270" />
              <mxPoint x="730" y="270" />
              <mxPoint x="730" y="130" />
              <mxPoint x="604" y="130" />
            </Array>
          </mxGeometry>
        </mxCell>
        <mxCell id="xrA6xBDfba17gvvvKiil-175" value="" style="edgeStyle=segmentEdgeStyle;endArrow=classic;html=1;fontSize=16;entryX=1;entryY=0.5;entryDx=0;entryDy=0;" parent="1" target="xrA6xBDfba17gvvvKiil-2" edge="1">
          <mxGeometry width="50" height="50" relative="1" as="geometry">
            <mxPoint x="316" y="530" as="sourcePoint" />
            <mxPoint x="760" y="510" as="targetPoint" />
            <Array as="points">
              <mxPoint x="316" y="550" />
              <mxPoint x="760" y="550" />
              <mxPoint x="760" y="89" />
            </Array>
          </mxGeometry>
        </mxCell>
        <mxCell id="xrA6xBDfba17gvvvKiil-101" value="FACTORY" style="shape=table;html=1;whiteSpace=wrap;startSize=30;container=1;collapsible=0;childLayout=tableLayout;fontStyle=1;align=center;strokeColor=#6c8ebf;fillColor=#dae8fc;fontSize=16;" parent="1" vertex="1">
          <mxGeometry x="30" y="1010" width="650" height="70" as="geometry" />
        </mxCell>
        <mxCell id="xrA6xBDfba17gvvvKiil-102" value="" style="shape=partialRectangle;html=1;whiteSpace=wrap;collapsible=0;dropTarget=0;pointerEvents=0;fillColor=none;top=0;left=0;bottom=0;right=0;points=[[0,0.5],[1,0.5]];portConstraint=eastwest;" parent="xrA6xBDfba17gvvvKiil-101" vertex="1">
          <mxGeometry y="30" width="650" height="40" as="geometry" />
        </mxCell>
        <mxCell id="xrA6xBDfba17gvvvKiil-103" value="Location" style="shape=partialRectangle;html=1;whiteSpace=wrap;connectable=0;fillColor=none;top=0;left=0;bottom=0;right=0;overflow=hidden;" parent="xrA6xBDfba17gvvvKiil-102" vertex="1">
          <mxGeometry width="217" height="40" as="geometry" />
        </mxCell>
        <mxCell id="xrA6xBDfba17gvvvKiil-104" value="Fk_owner_aad" style="shape=partialRectangle;html=1;whiteSpace=wrap;connectable=0;fillColor=none;top=0;left=0;bottom=0;right=0;overflow=hidden;" parent="xrA6xBDfba17gvvvKiil-102" vertex="1">
          <mxGeometry x="217" width="216" height="40" as="geometry" />
        </mxCell>
        <mxCell id="xrA6xBDfba17gvvvKiil-105" value="E-mail" style="shape=partialRectangle;html=1;whiteSpace=wrap;connectable=0;fillColor=#f8cecc;top=0;left=0;bottom=0;right=0;overflow=hidden;strokeColor=#b85450;" parent="xrA6xBDfba17gvvvKiil-102" vertex="1">
          <mxGeometry x="433" width="217" height="40" as="geometry" />
        </mxCell>
        <mxCell id="xrA6xBDfba17gvvvKiil-48" value="S_EMPLOYEE" style="shape=table;html=1;whiteSpace=wrap;startSize=30;container=1;collapsible=0;childLayout=tableLayout;fontStyle=1;align=center;strokeColor=#6c8ebf;fillColor=#dae8fc;fontSize=16;" parent="1" vertex="1">
          <mxGeometry x="30" y="460" width="670" height="70" as="geometry" />
        </mxCell>
        <mxCell id="xrA6xBDfba17gvvvKiil-49" value="" style="shape=partialRectangle;html=1;whiteSpace=wrap;collapsible=0;dropTarget=0;pointerEvents=0;fillColor=none;top=0;left=0;bottom=0;right=0;points=[[0,0.5],[1,0.5]];portConstraint=eastwest;" parent="xrA6xBDfba17gvvvKiil-48" vertex="1">
          <mxGeometry y="30" width="670" height="40" as="geometry" />
        </mxCell>
        <mxCell id="xrA6xBDfba17gvvvKiil-50" value="Fk_aad_no" style="shape=partialRectangle;html=1;whiteSpace=wrap;connectable=0;fillColor=#f8cecc;top=0;left=0;bottom=0;right=0;overflow=hidden;strokeColor=#b85450;" parent="xrA6xBDfba17gvvvKiil-49" vertex="1">
          <mxGeometry width="190" height="40" as="geometry" />
        </mxCell>
        <mxCell id="xrA6xBDfba17gvvvKiil-52" value="Fk_s" style="shape=partialRectangle;html=1;whiteSpace=wrap;connectable=0;fillColor=none;top=0;left=0;bottom=0;right=0;overflow=hidden;" parent="xrA6xBDfba17gvvvKiil-49" vertex="1">
          <mxGeometry x="190" width="210" height="40" as="geometry" />
        </mxCell>
        <mxCell id="xrA6xBDfba17gvvvKiil-61" value="Sup_aad" style="shape=partialRectangle;html=1;whiteSpace=wrap;connectable=0;fillColor=none;top=0;left=0;bottom=0;right=0;overflow=hidden;" parent="xrA6xBDfba17gvvvKiil-49" vertex="1">
          <mxGeometry x="400" width="270" height="40" as="geometry" />
        </mxCell>
        <mxCell id="xrA6xBDfba17gvvvKiil-180" value="" style="edgeStyle=segmentEdgeStyle;endArrow=classic;html=1;fontSize=16;exitX=0.875;exitY=1.025;exitDx=0;exitDy=0;exitPerimeter=0;entryX=0.157;entryY=1.075;entryDx=0;entryDy=0;entryPerimeter=0;" parent="xrA6xBDfba17gvvvKiil-48" source="xrA6xBDfba17gvvvKiil-49" target="xrA6xBDfba17gvvvKiil-49" edge="1">
          <mxGeometry width="50" height="50" relative="1" as="geometry">
            <mxPoint x="600" y="120" as="sourcePoint" />
            <mxPoint x="110" y="80" as="targetPoint" />
            <Array as="points">
              <mxPoint x="380" y="100" />
              <mxPoint x="604" y="100" />
            </Array>
          </mxGeometry>
        </mxCell>
        <mxCell id="xrA6xBDfba17gvvvKiil-75" value="CUSTOMERS" style="shape=table;html=1;whiteSpace=wrap;startSize=30;container=1;collapsible=0;childLayout=tableLayout;fontStyle=1;align=center;strokeColor=#6c8ebf;fillColor=#dae8fc;fontSize=16;" parent="1" vertex="1">
          <mxGeometry x="40" y="700" width="459" height="70" as="geometry" />
        </mxCell>
        <mxCell id="xrA6xBDfba17gvvvKiil-76" value="" style="shape=partialRectangle;html=1;whiteSpace=wrap;collapsible=0;dropTarget=0;pointerEvents=0;fillColor=none;top=0;left=0;bottom=0;right=0;points=[[0,0.5],[1,0.5]];portConstraint=eastwest;" parent="xrA6xBDfba17gvvvKiil-75" vertex="1">
          <mxGeometry y="30" width="459" height="40" as="geometry" />
        </mxCell>
        <mxCell id="xrA6xBDfba17gvvvKiil-77" value="Fk_aad_no" style="shape=partialRectangle;html=1;whiteSpace=wrap;connectable=0;fillColor=#f8cecc;top=0;left=0;bottom=0;right=0;overflow=hidden;strokeColor=#b85450;" parent="xrA6xBDfba17gvvvKiil-76" vertex="1">
          <mxGeometry width="231" height="40" as="geometry" />
        </mxCell>
        <mxCell id="xrA6xBDfba17gvvvKiil-78" value="Fk_insur" style="shape=partialRectangle;html=1;whiteSpace=wrap;connectable=0;fillColor=none;top=0;left=0;bottom=0;right=0;overflow=hidden;" parent="xrA6xBDfba17gvvvKiil-76" vertex="1">
          <mxGeometry x="231" width="228" height="40" as="geometry" />
        </mxCell>
        <mxCell id="2TeCFwEwygQcQMG8R-6U-1" value="F_EMLOYEE" style="shape=table;html=1;whiteSpace=wrap;startSize=30;container=1;collapsible=0;childLayout=tableLayout;fontStyle=1;align=center;strokeColor=#6c8ebf;fillColor=#dae8fc;fontSize=16;" parent="1" vertex="1">
          <mxGeometry x="20" y="580" width="670" height="70" as="geometry" />
        </mxCell>
        <mxCell id="2TeCFwEwygQcQMG8R-6U-2" value="" style="shape=partialRectangle;html=1;whiteSpace=wrap;collapsible=0;dropTarget=0;pointerEvents=0;fillColor=none;top=0;left=0;bottom=0;right=0;points=[[0,0.5],[1,0.5]];portConstraint=eastwest;" parent="2TeCFwEwygQcQMG8R-6U-1" vertex="1">
          <mxGeometry y="30" width="670" height="40" as="geometry" />
        </mxCell>
        <mxCell id="2TeCFwEwygQcQMG8R-6U-3" value="Fk_aad_no" style="shape=partialRectangle;html=1;whiteSpace=wrap;connectable=0;fillColor=#f8cecc;top=0;left=0;bottom=0;right=0;overflow=hidden;strokeColor=#b85450;" parent="2TeCFwEwygQcQMG8R-6U-2" vertex="1">
          <mxGeometry width="190" height="40" as="geometry" />
        </mxCell>
        <mxCell id="2TeCFwEwygQcQMG8R-6U-5" value="Fk_f" style="shape=partialRectangle;html=1;whiteSpace=wrap;connectable=0;fillColor=none;top=0;left=0;bottom=0;right=0;overflow=hidden;" parent="2TeCFwEwygQcQMG8R-6U-2" vertex="1">
          <mxGeometry x="190" width="210" height="40" as="geometry" />
        </mxCell>
        <mxCell id="2TeCFwEwygQcQMG8R-6U-6" value="Sup_aad" style="shape=partialRectangle;html=1;whiteSpace=wrap;connectable=0;fillColor=none;top=0;left=0;bottom=0;right=0;overflow=hidden;" parent="2TeCFwEwygQcQMG8R-6U-2" vertex="1">
          <mxGeometry x="400" width="270" height="40" as="geometry" />
        </mxCell>
        <mxCell id="2TeCFwEwygQcQMG8R-6U-7" value="" style="edgeStyle=segmentEdgeStyle;endArrow=classic;html=1;fontSize=16;exitX=0.875;exitY=1.025;exitDx=0;exitDy=0;exitPerimeter=0;entryX=0.157;entryY=1.075;entryDx=0;entryDy=0;entryPerimeter=0;" parent="2TeCFwEwygQcQMG8R-6U-1" source="2TeCFwEwygQcQMG8R-6U-2" target="2TeCFwEwygQcQMG8R-6U-2" edge="1">
          <mxGeometry width="50" height="50" relative="1" as="geometry">
            <mxPoint x="600" y="120" as="sourcePoint" />
            <mxPoint x="110" y="80" as="targetPoint" />
            <Array as="points">
              <mxPoint x="380" y="100" />
              <mxPoint x="604" y="100" />
            </Array>
          </mxGeometry>
        </mxCell>
        <mxCell id="xrA6xBDfba17gvvvKiil-166" value="INSURED_VIA" style="shape=table;html=1;whiteSpace=wrap;startSize=30;container=1;collapsible=0;childLayout=tableLayout;fontStyle=1;align=center;strokeColor=#6c8ebf;fillColor=#dae8fc;fontSize=16;" parent="1" vertex="1">
          <mxGeometry x="30" y="1890" width="650" height="70" as="geometry" />
        </mxCell>
        <mxCell id="xrA6xBDfba17gvvvKiil-167" value="" style="shape=partialRectangle;html=1;whiteSpace=wrap;collapsible=0;dropTarget=0;pointerEvents=0;fillColor=none;top=0;left=0;bottom=0;right=0;points=[[0,0.5],[1,0.5]];portConstraint=eastwest;" parent="xrA6xBDfba17gvvvKiil-166" vertex="1">
          <mxGeometry y="30" width="650" height="40" as="geometry" />
        </mxCell>
        <mxCell id="xrA6xBDfba17gvvvKiil-168" value="E_aad" style="shape=partialRectangle;html=1;whiteSpace=wrap;connectable=0;fillColor=#f8cecc;top=0;left=0;bottom=0;right=0;overflow=hidden;strokeColor=#b85450;" parent="xrA6xBDfba17gvvvKiil-167" vertex="1">
          <mxGeometry width="217" height="40" as="geometry" />
        </mxCell>
        <mxCell id="xrA6xBDfba17gvvvKiil-169" value="F_email" style="shape=partialRectangle;html=1;whiteSpace=wrap;connectable=0;fillColor=#f8cecc;top=0;left=0;bottom=0;right=0;overflow=hidden;strokeColor=#b85450;" parent="xrA6xBDfba17gvvvKiil-167" vertex="1">
          <mxGeometry x="217" width="216" height="40" as="geometry" />
        </mxCell>
        <mxCell id="xrA6xBDfba17gvvvKiil-170" value="I_name" style="shape=partialRectangle;html=1;whiteSpace=wrap;connectable=0;fillColor=#f8cecc;top=0;left=0;bottom=0;right=0;overflow=hidden;strokeColor=#b85450;" parent="xrA6xBDfba17gvvvKiil-167" vertex="1">
          <mxGeometry x="433" width="217" height="40" as="geometry" />
        </mxCell>
        <mxCell id="xrA6xBDfba17gvvvKiil-153" value="SUPPLY" style="shape=table;html=1;whiteSpace=wrap;startSize=30;container=1;collapsible=0;childLayout=tableLayout;fontStyle=1;align=center;strokeColor=#6c8ebf;fillColor=#dae8fc;fontSize=16;" parent="1" vertex="1">
          <mxGeometry x="30" y="1690" width="650" height="70" as="geometry" />
        </mxCell>
        <mxCell id="xrA6xBDfba17gvvvKiil-154" value="" style="shape=partialRectangle;html=1;whiteSpace=wrap;collapsible=0;dropTarget=0;pointerEvents=0;fillColor=none;top=0;left=0;bottom=0;right=0;points=[[0,0.5],[1,0.5]];portConstraint=eastwest;" parent="xrA6xBDfba17gvvvKiil-153" vertex="1">
          <mxGeometry y="30" width="650" height="40" as="geometry" />
        </mxCell>
        <mxCell id="xrA6xBDfba17gvvvKiil-155" value="E-mail" style="shape=partialRectangle;html=1;whiteSpace=wrap;connectable=0;fillColor=#f8cecc;top=0;left=0;bottom=0;right=0;overflow=hidden;strokeColor=#b85450;" parent="xrA6xBDfba17gvvvKiil-154" vertex="1">
          <mxGeometry width="217" height="40" as="geometry" />
        </mxCell>
        <mxCell id="xrA6xBDfba17gvvvKiil-156" value="Name" style="shape=partialRectangle;html=1;whiteSpace=wrap;connectable=0;fillColor=#f8cecc;top=0;left=0;bottom=0;right=0;overflow=hidden;strokeColor=#b85450;" parent="xrA6xBDfba17gvvvKiil-154" vertex="1">
          <mxGeometry x="217" width="216" height="40" as="geometry" />
        </mxCell>
        <mxCell id="xrA6xBDfba17gvvvKiil-157" value="Sh_loc" style="shape=partialRectangle;html=1;whiteSpace=wrap;connectable=0;fillColor=#f8cecc;top=0;left=0;bottom=0;right=0;overflow=hidden;strokeColor=#b85450;" parent="xrA6xBDfba17gvvvKiil-154" vertex="1">
          <mxGeometry x="433" width="217" height="40" as="geometry" />
        </mxCell>
        <mxCell id="xrA6xBDfba17gvvvKiil-114" value="CONSIGNMENT" style="shape=table;html=1;whiteSpace=wrap;startSize=30;container=1;collapsible=0;childLayout=tableLayout;fontStyle=1;align=center;strokeColor=#6c8ebf;fillColor=#dae8fc;fontSize=16;" parent="1" vertex="1">
          <mxGeometry x="10" y="1180" width="650" height="70" as="geometry" />
        </mxCell>
        <mxCell id="xrA6xBDfba17gvvvKiil-119" value="" style="shape=partialRectangle;html=1;whiteSpace=wrap;collapsible=0;dropTarget=0;pointerEvents=0;fillColor=none;top=0;left=0;bottom=0;right=0;points=[[0,0.5],[1,0.5]];portConstraint=eastwest;" parent="xrA6xBDfba17gvvvKiil-114" vertex="1">
          <mxGeometry y="30" width="650" height="40" as="geometry" />
        </mxCell>
        <mxCell id="xrA6xBDfba17gvvvKiil-120" value="Fk_works_on_id" style="shape=partialRectangle;html=1;whiteSpace=wrap;connectable=0;fillColor=#f8cecc;top=0;left=0;bottom=0;right=0;overflow=hidden;strokeColor=#b85450;" parent="xrA6xBDfba17gvvvKiil-119" vertex="1">
          <mxGeometry width="220" height="40" as="geometry" />
        </mxCell>
        <mxCell id="xrA6xBDfba17gvvvKiil-121" value="Year" style="shape=partialRectangle;html=1;whiteSpace=wrap;connectable=0;fillColor=none;top=0;left=0;bottom=0;right=0;overflow=hidden;" parent="xrA6xBDfba17gvvvKiil-119" vertex="1">
          <mxGeometry x="220" width="210" height="40" as="geometry" />
        </mxCell>
        <mxCell id="xrA6xBDfba17gvvvKiil-122" value="Quantity" style="shape=partialRectangle;html=1;whiteSpace=wrap;connectable=0;fillColor=none;top=0;left=0;bottom=0;right=0;overflow=hidden;" parent="xrA6xBDfba17gvvvKiil-119" vertex="1">
          <mxGeometry x="430" width="220" height="40" as="geometry" />
        </mxCell>
        <mxCell id="xrA6xBDfba17gvvvKiil-127" value="WORKS_ON" style="shape=table;html=1;whiteSpace=wrap;startSize=30;container=1;collapsible=0;childLayout=tableLayout;fontStyle=1;align=center;strokeColor=#6c8ebf;fillColor=#dae8fc;fontSize=16;" parent="1" vertex="1">
          <mxGeometry x="60" y="1370" width="430" height="70" as="geometry" />
        </mxCell>
        <mxCell id="xrA6xBDfba17gvvvKiil-128" value="" style="shape=partialRectangle;html=1;whiteSpace=wrap;collapsible=0;dropTarget=0;pointerEvents=0;fillColor=none;top=0;left=0;bottom=0;right=0;points=[[0,0.5],[1,0.5]];portConstraint=eastwest;" parent="xrA6xBDfba17gvvvKiil-127" vertex="1">
          <mxGeometry y="30" width="430" height="40" as="geometry" />
        </mxCell>
        <mxCell id="xrA6xBDfba17gvvvKiil-129" value="Id" style="shape=partialRectangle;html=1;whiteSpace=wrap;connectable=0;fillColor=#f8cecc;top=0;left=0;bottom=0;right=0;overflow=hidden;strokeColor=#b85450;" parent="xrA6xBDfba17gvvvKiil-128" vertex="1">
          <mxGeometry width="220" height="40" as="geometry" />
        </mxCell>
        <mxCell id="xrA6xBDfba17gvvvKiil-130" value="Fk_email" style="shape=partialRectangle;html=1;whiteSpace=wrap;connectable=0;fillColor=#f8cecc;top=0;left=0;bottom=0;right=0;overflow=hidden;strokeColor=#b85450;" parent="xrA6xBDfba17gvvvKiil-128" vertex="1">
          <mxGeometry x="220" width="210" height="40" as="geometry" />
        </mxCell>
        <mxCell id="xrA6xBDfba17gvvvKiil-140" value="COMMODITY" style="shape=table;html=1;whiteSpace=wrap;startSize=30;container=1;collapsible=0;childLayout=tableLayout;fontStyle=1;align=center;strokeColor=#6c8ebf;fillColor=#dae8fc;fontSize=16;" parent="1" vertex="1">
          <mxGeometry x="170" y="1540" width="190" height="70" as="geometry" />
        </mxCell>
        <mxCell id="xrA6xBDfba17gvvvKiil-141" value="" style="shape=partialRectangle;html=1;whiteSpace=wrap;collapsible=0;dropTarget=0;pointerEvents=0;fillColor=none;top=0;left=0;bottom=0;right=0;points=[[0,0.5],[1,0.5]];portConstraint=eastwest;" parent="xrA6xBDfba17gvvvKiil-140" vertex="1">
          <mxGeometry y="30" width="190" height="40" as="geometry" />
        </mxCell>
        <mxCell id="xrA6xBDfba17gvvvKiil-142" value="Name" style="shape=partialRectangle;html=1;whiteSpace=wrap;connectable=0;fillColor=#fff2cc;top=0;left=0;bottom=0;right=0;overflow=hidden;strokeColor=#d6b656;" parent="xrA6xBDfba17gvvvKiil-141" vertex="1">
          <mxGeometry width="190" height="40" as="geometry" />
        </mxCell>
        <mxCell id="xrA6xBDfba17gvvvKiil-176" value="" style="edgeStyle=segmentEdgeStyle;endArrow=classic;html=1;fontSize=16;exitX=1;exitY=0.5;exitDx=0;exitDy=0;entryX=1;entryY=0.135;entryDx=0;entryDy=0;entryPerimeter=0;" parent="1" source="xrA6xBDfba17gvvvKiil-154" target="xrA6xBDfba17gvvvKiil-2" edge="1">
          <mxGeometry width="50" height="50" relative="1" as="geometry">
            <mxPoint x="690" y="1750" as="sourcePoint" />
            <mxPoint x="780" y="78" as="targetPoint" />
            <Array as="points">
              <mxPoint x="780" y="1740" />
              <mxPoint x="780" y="75" />
            </Array>
          </mxGeometry>
        </mxCell>
        <mxCell id="xrA6xBDfba17gvvvKiil-177" value="" style="edgeStyle=segmentEdgeStyle;endArrow=classic;html=1;fontSize=16;exitX=0.126;exitY=1.05;exitDx=0;exitDy=0;exitPerimeter=0;entryX=0;entryY=0.5;entryDx=0;entryDy=0;" parent="1" source="xrA6xBDfba17gvvvKiil-49" target="xrA6xBDfba17gvvvKiil-36" edge="1">
          <mxGeometry width="50" height="50" relative="1" as="geometry">
            <mxPoint x="120" y="610" as="sourcePoint" />
            <mxPoint x="20" y="390" as="targetPoint" />
            <Array as="points">
              <mxPoint x="117" y="550" />
              <mxPoint x="20" y="550" />
              <mxPoint x="20" y="390" />
            </Array>
          </mxGeometry>
        </mxCell>
        <mxCell id="xrA6xBDfba17gvvvKiil-178" value="" style="edgeStyle=segmentEdgeStyle;endArrow=classic;html=1;fontSize=16;exitX=0.179;exitY=1.05;exitDx=0;exitDy=0;exitPerimeter=0;entryX=0;entryY=0.225;entryDx=0;entryDy=0;entryPerimeter=0;" parent="1" source="xrA6xBDfba17gvvvKiil-76" target="xrA6xBDfba17gvvvKiil-36" edge="1">
          <mxGeometry width="50" height="50" relative="1" as="geometry">
            <mxPoint x="120" y="820" as="sourcePoint" />
            <mxPoint x="10" y="380" as="targetPoint" />
            <Array as="points">
              <mxPoint x="122" y="780" />
              <mxPoint x="10" y="780" />
              <mxPoint x="10" y="379" />
            </Array>
          </mxGeometry>
        </mxCell>
        <mxCell id="xrA6xBDfba17gvvvKiil-179" value="" style="edgeStyle=segmentEdgeStyle;endArrow=classic;html=1;fontSize=16;exitX=0.498;exitY=1.05;exitDx=0;exitDy=0;exitPerimeter=0;entryX=0.17;entryY=1.025;entryDx=0;entryDy=0;entryPerimeter=0;" parent="1" source="xrA6xBDfba17gvvvKiil-102" target="xrA6xBDfba17gvvvKiil-36" edge="1">
          <mxGeometry width="50" height="50" relative="1" as="geometry">
            <mxPoint x="360" y="1150" as="sourcePoint" />
            <mxPoint x="150" y="460" as="targetPoint" />
            <Array as="points">
              <mxPoint x="354" y="1110" />
              <mxPoint x="730" y="1110" />
              <mxPoint x="730" y="430" />
              <mxPoint x="154" y="430" />
            </Array>
          </mxGeometry>
        </mxCell>
        <mxCell id="xrA6xBDfba17gvvvKiil-182" value="" style="edgeStyle=segmentEdgeStyle;endArrow=classic;html=1;fontSize=16;exitX=0;exitY=0.5;exitDx=0;exitDy=0;entryX=0;entryY=0.5;entryDx=0;entryDy=0;" parent="1" source="xrA6xBDfba17gvvvKiil-22" target="xrA6xBDfba17gvvvKiil-76" edge="1">
          <mxGeometry width="50" height="50" relative="1" as="geometry">
            <mxPoint x="-40" y="230" as="sourcePoint" />
            <mxPoint x="-50" y="748" as="targetPoint" />
            <Array as="points">
              <mxPoint x="-50" y="230" />
              <mxPoint x="-50" y="740" />
            </Array>
          </mxGeometry>
        </mxCell>
        <mxCell id="xrA6xBDfba17gvvvKiil-183" value="" style="edgeStyle=segmentEdgeStyle;endArrow=classic;html=1;fontSize=16;exitX=1;exitY=0.5;exitDx=0;exitDy=0;entryX=1;entryY=0.5;entryDx=0;entryDy=0;" parent="1" source="xrA6xBDfba17gvvvKiil-76" target="xrA6xBDfba17gvvvKiil-89" edge="1">
          <mxGeometry width="50" height="50" relative="1" as="geometry">
            <mxPoint x="530" y="790" as="sourcePoint" />
            <mxPoint x="540" y="900" as="targetPoint" />
            <Array as="points">
              <mxPoint x="540" y="740" />
              <mxPoint x="540" y="890" />
            </Array>
          </mxGeometry>
        </mxCell>
        <mxCell id="xrA6xBDfba17gvvvKiil-184" value="" style="edgeStyle=segmentEdgeStyle;endArrow=classic;html=1;fontSize=16;exitX=1;exitY=0.5;exitDx=0;exitDy=0;" parent="1" source="xrA6xBDfba17gvvvKiil-167" edge="1">
          <mxGeometry width="50" height="50" relative="1" as="geometry">
            <mxPoint x="700" y="1970" as="sourcePoint" />
            <mxPoint x="500" y="898" as="targetPoint" />
            <Array as="points">
              <mxPoint x="700" y="1940" />
              <mxPoint x="700" y="898" />
            </Array>
          </mxGeometry>
        </mxCell>
        <mxCell id="spciMXDjS0xDdZCrkoL5-3" value="" style="edgeStyle=segmentEdgeStyle;endArrow=classic;html=1;" parent="1" target="xrA6xBDfba17gvvvKiil-102" edge="1">
          <mxGeometry width="50" height="50" relative="1" as="geometry">
            <mxPoint x="319" y="650" as="sourcePoint" />
            <mxPoint x="820" y="900" as="targetPoint" />
            <Array as="points">
              <mxPoint x="319" y="670" />
              <mxPoint x="820" y="670" />
              <mxPoint x="820" y="1060" />
            </Array>
          </mxGeometry>
        </mxCell>
        <mxCell id="spciMXDjS0xDdZCrkoL5-4" value="" style="edgeStyle=segmentEdgeStyle;endArrow=classic;html=1;entryX=1.005;entryY=0.925;entryDx=0;entryDy=0;entryPerimeter=0;" parent="1" target="xrA6xBDfba17gvvvKiil-102" edge="1">
          <mxGeometry width="50" height="50" relative="1" as="geometry">
            <mxPoint x="700" y="240" as="sourcePoint" />
            <mxPoint x="840" y="1080" as="targetPoint" />
            <Array as="points">
              <mxPoint x="840" y="240" />
              <mxPoint x="840" y="1077" />
            </Array>
          </mxGeometry>
        </mxCell>
        <mxCell id="spciMXDjS0xDdZCrkoL5-5" value="" style="edgeStyle=segmentEdgeStyle;endArrow=classic;html=1;entryX=0.98;entryY=0.95;entryDx=0;entryDy=0;entryPerimeter=0;" parent="1" target="xrA6xBDfba17gvvvKiil-102" edge="1">
          <mxGeometry width="50" height="50" relative="1" as="geometry">
            <mxPoint x="490" y="1440" as="sourcePoint" />
            <mxPoint x="540" y="1390" as="targetPoint" />
          </mxGeometry>
        </mxCell>
        <mxCell id="spciMXDjS0xDdZCrkoL5-6" value="" style="edgeStyle=segmentEdgeStyle;endArrow=classic;html=1;exitX=0.518;exitY=1.025;exitDx=0;exitDy=0;exitPerimeter=0;entryX=1.002;entryY=0.2;entryDx=0;entryDy=0;entryPerimeter=0;" parent="1" source="xrA6xBDfba17gvvvKiil-167" target="xrA6xBDfba17gvvvKiil-102" edge="1">
          <mxGeometry width="50" height="50" relative="1" as="geometry">
            <mxPoint x="370" y="2010" as="sourcePoint" />
            <mxPoint x="750" y="1048" as="targetPoint" />
            <Array as="points">
              <mxPoint x="370" y="1961" />
              <mxPoint x="370" y="2030" />
              <mxPoint x="750" y="2030" />
              <mxPoint x="750" y="1048" />
            </Array>
          </mxGeometry>
        </mxCell>
        <mxCell id="spciMXDjS0xDdZCrkoL5-7" value="" style="edgeStyle=segmentEdgeStyle;endArrow=classic;html=1;exitX=0.049;exitY=1.075;exitDx=0;exitDy=0;exitPerimeter=0;" parent="1" source="xrA6xBDfba17gvvvKiil-119" edge="1">
          <mxGeometry width="50" height="50" relative="1" as="geometry">
            <mxPoint x="40" y="1480" as="sourcePoint" />
            <mxPoint x="160" y="1440" as="targetPoint" />
            <Array as="points">
              <mxPoint x="42" y="1480" />
              <mxPoint x="160" y="1480" />
            </Array>
          </mxGeometry>
        </mxCell>
        <mxCell id="spciMXDjS0xDdZCrkoL5-8" value="" style="edgeStyle=segmentEdgeStyle;endArrow=classic;html=1;exitX=0.376;exitY=1.025;exitDx=0;exitDy=0;exitPerimeter=0;" parent="1" source="xrA6xBDfba17gvvvKiil-22" edge="1">
          <mxGeometry width="50" height="50" relative="1" as="geometry">
            <mxPoint x="280" y="280" as="sourcePoint" />
            <mxPoint x="280" y="1610" as="targetPoint" />
            <Array as="points">
              <mxPoint x="281" y="280" />
              <mxPoint x="-10" y="280" />
              <mxPoint x="-10" y="1630" />
              <mxPoint x="280" y="1630" />
            </Array>
          </mxGeometry>
        </mxCell>
        <mxCell id="spciMXDjS0xDdZCrkoL5-9" value="" style="edgeStyle=segmentEdgeStyle;endArrow=classic;html=1;exitX=0.506;exitY=1.025;exitDx=0;exitDy=0;exitPerimeter=0;" parent="1" source="xrA6xBDfba17gvvvKiil-154" edge="1">
          <mxGeometry width="50" height="50" relative="1" as="geometry">
            <mxPoint x="360" y="1790" as="sourcePoint" />
            <mxPoint x="250" y="1610" as="targetPoint" />
            <Array as="points">
              <mxPoint x="359" y="1790" />
              <mxPoint x="10" y="1790" />
              <mxPoint x="10" y="1660" />
              <mxPoint x="250" y="1660" />
            </Array>
          </mxGeometry>
        </mxCell>
        <mxCell id="2TeCFwEwygQcQMG8R-6U-8" value="" style="edgeStyle=segmentEdgeStyle;endArrow=classic;html=1;exitX=0;exitY=0.5;exitDx=0;exitDy=0;entryX=0;entryY=0.75;entryDx=0;entryDy=0;entryPerimeter=0;" parent="1" source="2TeCFwEwygQcQMG8R-6U-2" target="xrA6xBDfba17gvvvKiil-36" edge="1">
          <mxGeometry width="50" height="50" relative="1" as="geometry">
            <mxPoint x="60" y="700" as="sourcePoint" />
            <mxPoint x="-70" y="400" as="targetPoint" />
            <Array as="points">
              <mxPoint x="-70" y="630" />
              <mxPoint x="-70" y="400" />
            </Array>
          </mxGeometry>
        </mxCell>
        <mxCell id="7rs6G925yg6f3wIJAmo9-1" value="" style="edgeStyle=segmentEdgeStyle;endArrow=classic;html=1;exitX=0;exitY=0.5;exitDx=0;exitDy=0;entryX=0.84;entryY=1.075;entryDx=0;entryDy=0;entryPerimeter=0;" parent="1" source="xrA6xBDfba17gvvvKiil-154" target="xrA6xBDfba17gvvvKiil-102" edge="1">
          <mxGeometry width="50" height="50" relative="1" as="geometry">
            <mxPoint x="-70" y="1760" as="sourcePoint" />
            <mxPoint x="580" y="1130" as="targetPoint" />
            <Array as="points">
              <mxPoint x="-60" y="1740" />
              <mxPoint x="-60" y="1130" />
              <mxPoint x="576" y="1130" />
            </Array>
          </mxGeometry>
        </mxCell>
        <mxCell id="bEoiJSLajP9JEF925Olp-1" value="" style="edgeStyle=segmentEdgeStyle;endArrow=classic;html=1;exitX=0;exitY=0.5;exitDx=0;exitDy=0;entryX=-0.004;entryY=0.8;entryDx=0;entryDy=0;entryPerimeter=0;" edge="1" parent="1" source="xrA6xBDfba17gvvvKiil-167" target="2TeCFwEwygQcQMG8R-6U-2">
          <mxGeometry width="50" height="50" relative="1" as="geometry">
            <mxPoint x="-30" y="1950" as="sourcePoint" />
            <mxPoint x="-110" y="642" as="targetPoint" />
            <Array as="points">
              <mxPoint x="-110" y="1940" />
              <mxPoint x="-110" y="642" />
            </Array>
          </mxGeometry>
        </mxCell>
      </root>
    </mxGraphModel>
  </diagram>
</mxfile>
